<?xml version="1.0" encoding="UTF-8"?>
<svg width="2560px" height="2333px" viewBox="0 0 2560 2333" version="1.1" xmlns="http://www.w3.org/2000/svg" xmlns:xlink="http://www.w3.org/1999/xlink" style="background: #F2F2F2;">
    <!-- Generator: Sketch 55 (78076) - https://sketchapp.com -->
    <title>preview</title>
    <desc>Created with Sketch.</desc>
    <defs>
        <linearGradient x1="50%" y1="0%" x2="50%" y2="100%" id="linearGradient-1">
            <stop stop-color="#AEAEAE" offset="0%"></stop>
            <stop stop-color="#383838" offset="100%"></stop>
        </linearGradient>
        <linearGradient x1="50%" y1="0%" x2="50%" y2="100%" id="linearGradient-2">
            <stop stop-color="#AEAEAE" offset="0%"></stop>
            <stop stop-color="#383838" offset="100%"></stop>
        </linearGradient>
        <linearGradient x1="50%" y1="0%" x2="50%" y2="100%" id="linearGradient-3">
            <stop stop-color="#AEAEAE" offset="0%"></stop>
            <stop stop-color="#383838" offset="100%"></stop>
        </linearGradient>
        <linearGradient x1="50%" y1="0%" x2="50%" y2="100%" id="linearGradient-4">
            <stop stop-color="#9BC8FF" offset="0%"></stop>
            <stop stop-color="#2087FF" offset="43.7341639%"></stop>
            <stop stop-color="#2086F7" offset="53.1883446%"></stop>
            <stop stop-color="#0958AF" offset="100%"></stop>
            <stop stop-color="#0A5DB7" offset="100%"></stop>
        </linearGradient>
        <linearGradient x1="50%" y1="0%" x2="50%" y2="94.6192789%" id="linearGradient-5">
            <stop stop-color="#B1D3FC" offset="0%"></stop>
            <stop stop-color="#1F7FE9" offset="83.8353151%"></stop>
            <stop stop-color="#136ACA" offset="99.9868032%"></stop>
        </linearGradient>
        <linearGradient x1="50%" y1="0%" x2="50%" y2="94.6567489%" id="linearGradient-6">
            <stop stop-color="#97C6FF" offset="0%"></stop>
            <stop stop-color="#2087F8" offset="77.2161905%"></stop>
            <stop stop-color="#126ACA" offset="100%"></stop>
        </linearGradient>
        <linearGradient x1="50%" y1="0%" x2="50%" y2="100%" id="linearGradient-7">
            <stop stop-color="#9BC8FF" offset="0%"></stop>
            <stop stop-color="#2087FF" offset="43.7341639%"></stop>
            <stop stop-color="#2086F7" offset="53.1883446%"></stop>
            <stop stop-color="#0958AF" offset="100%"></stop>
            <stop stop-color="#0A5DB7" offset="100%"></stop>
        </linearGradient>
        <linearGradient x1="50%" y1="0%" x2="50%" y2="94.6192789%" id="linearGradient-8">
            <stop stop-color="#B1D3FC" offset="0%"></stop>
            <stop stop-color="#1F7FE9" offset="83.8353151%"></stop>
            <stop stop-color="#136ACA" offset="99.9868032%"></stop>
        </linearGradient>
        <linearGradient x1="50%" y1="0%" x2="50%" y2="100%" id="linearGradient-9">
            <stop stop-color="#999999" offset="0%"></stop>
            <stop stop-color="#505050" offset="100%"></stop>
        </linearGradient>
        <linearGradient x1="50%" y1="0%" x2="50%" y2="100%" id="linearGradient-10">
            <stop stop-color="#999999" offset="0%"></stop>
            <stop stop-color="#505050" offset="100%"></stop>
        </linearGradient>
        <linearGradient x1="52.6723303%" y1="11.5863438%" x2="79.4336787%" y2="51.9975325%" id="linearGradient-11">
            <stop stop-color="#218CFF" offset="0%"></stop>
            <stop stop-color="#5AA9FD" offset="43.1297508%"></stop>
            <stop stop-color="#50A5FF" offset="66.0288218%"></stop>
            <stop stop-color="#0F3258" offset="100%"></stop>
        </linearGradient>
        <linearGradient x1="20.2293509%" y1="5.89812887%" x2="66.5103637%" y2="100%" id="linearGradient-12">
            <stop stop-color="#258BF9" offset="0%"></stop>
            <stop stop-color="#50A5FF" offset="46.6604544%"></stop>
            <stop stop-color="#0D4683" offset="100%"></stop>
        </linearGradient>
        <linearGradient x1="52.695927%" y1="11.5863438%" x2="79.6935774%" y2="51.9975325%" id="linearGradient-13">
            <stop stop-color="#218CFF" offset="0%"></stop>
            <stop stop-color="#5AA9FD" offset="43.1297508%"></stop>
            <stop stop-color="#50A5FF" offset="66.0288218%"></stop>
            <stop stop-color="#0F3258" offset="100%"></stop>
        </linearGradient>
        <linearGradient x1="19.9664767%" y1="5.89812887%" x2="66.6561499%" y2="100%" id="linearGradient-14">
            <stop stop-color="#258BF9" offset="0%"></stop>
            <stop stop-color="#50A5FF" offset="46.6604544%"></stop>
            <stop stop-color="#0D4683" offset="100%"></stop>
        </linearGradient>
        <linearGradient x1="50%" y1="0%" x2="50%" y2="100%" id="linearGradient-15">
            <stop stop-color="#9BC8FF" offset="0%"></stop>
            <stop stop-color="#2087FF" offset="43.7341639%"></stop>
            <stop stop-color="#2086F7" offset="53.1883446%"></stop>
            <stop stop-color="#0958AF" offset="100%"></stop>
            <stop stop-color="#0A5DB7" offset="100%"></stop>
        </linearGradient>
        <linearGradient x1="50%" y1="0%" x2="50%" y2="94.6192789%" id="linearGradient-16">
            <stop stop-color="#B1D3FC" offset="0%"></stop>
            <stop stop-color="#1F7FE9" offset="83.8353151%"></stop>
            <stop stop-color="#136ACA" offset="99.9868032%"></stop>
        </linearGradient>
    </defs>
    <g id="Page-1" stroke="none" stroke-width="1" fill="none" fill-rule="evenodd">
        <g id="logo/stereoscopic" transform="translate(439.000000, 861.000000)">
            <rect fill="#FFFFFF" x="0" y="0" width="256" height="256"></rect>
            <path d="M176,128 C122.980664,128 80,170.980664 80,224 L32,224 L128,32 L176,128 Z" id="Combined-Shape" fill="url(#linearGradient-1)"></path>
            <path d="M175.927332,127.854665 L176,128 L224,224 L175.843091,224 C167.674932,209.879699 163,193.485794 163,176 C163,158.454192 167.707077,142.007782 175.927332,127.854665 Z" id="Combined-Shape" fill="url(#linearGradient-2)"></path>
        </g>
        <g id="logo/gradual" transform="translate(795.000000, 861.000000)">
            <rect fill="#FFFFFF" x="0" y="0" width="256" height="256"></rect>
            <path d="M176,128 L224,224 L175.843091,224 C167.674932,209.879699 163,193.485794 163,176 C163,158.514269 167.674898,142.120419 175.843018,128.000126 C122.895851,128.084865 80,171.033001 80,224 L32,224 L128,32 L175.927332,127.854665 L176,128 C175.947663,128 175.895336,128.000042 175.843018,128.000126 Z" id="Combined-Shape" fill="url(#linearGradient-3)"></path>
        </g>
        <g id="logo/black-bg" transform="translate(1151.000000, 861.000000)">
            <rect fill="#575757" x="0" y="0" width="256" height="256"></rect>
            <path d="M176,128 C122.980664,128 80,170.980664 80,224 L32,224 L128,32 L176,128 Z" id="Combined-Shape" fill="#FFFFFF"></path>
            <path d="M175.927332,127.854665 L176,128 L224,224 L175.843091,224 C167.674932,209.879699 163,193.485794 163,176 C163,158.454192 167.707077,142.007782 175.927332,127.854665 Z" id="Combined-Shape" fill="#FFFFFF"></path>
        </g>
        <g id="logo/color/stereoscopic" transform="translate(439.000000, 1237.000000)">
            <rect fill="#FFFFFF" x="0" y="0" width="256" height="256"></rect>
            <path d="M176,128 C122.980664,128 80,170.980664 80,224 L32,224 L128,32 L176,128 Z" id="Combined-Shape" fill="url(#linearGradient-4)"></path>
            <path d="M175.927332,127.854665 L176,128 L224,224 L175.843091,224 C167.674932,209.879699 163,193.485794 163,176 C163,158.454192 167.707077,142.007782 175.927332,127.854665 Z" id="Combined-Shape" fill="url(#linearGradient-5)"></path>
        </g>
        <g id="logo/color/gradual" transform="translate(795.000000, 1237.000000)">
            <rect fill="#FFFFFF" x="0" y="0" width="256" height="256"></rect>
            <path d="M176,128 L224,224 L175.843091,224 C167.674932,209.879699 163,193.485794 163,176 C163,158.514269 167.674898,142.120419 175.843018,128.000126 C122.895851,128.084865 80,171.033001 80,224 L32,224 L128,32 L175.927332,127.854665 L176,128 C175.947663,128 175.895336,128.000042 175.843018,128.000126 Z" id="Combined-Shape" fill="url(#linearGradient-6)"></path>
        </g>
        <g id="logo/color/black-bg" transform="translate(1151.000000, 1237.000000)">
            <rect fill="#575757" x="0" y="0" width="256" height="256"></rect>
            <path d="M176,128 C122.980664,128 80,170.980664 80,224 L32,224 L128,32 L176,128 Z" id="Combined-Shape" fill="#FFFFFF"></path>
            <path d="M175.927332,127.854665 L176,128 L224,224 L175.843091,224 C167.674932,209.879699 163,193.485794 163,176 C163,158.454192 167.707077,142.007782 175.927332,127.854665 Z" id="Combined-Shape" fill="#FFFFFF"></path>
        </g>
        <g id="logo/color/flat" transform="translate(83.000000, 1237.000000)">
            <rect fill="#FFFFFF" x="0" y="0" width="256" height="256"></rect>
            <path d="M176,128 C122.980664,128 80,170.980664 80,224 L32,224 L128,32 L176,128 Z" id="Combined-Shape" fill="#2086F8"></path>
            <path d="M175.927332,127.854665 L176,128 L224,224 L175.843091,224 C167.674932,209.879699 163,193.485794 163,176 C163,158.454192 167.707077,142.007782 175.927332,127.854665 Z" id="Combined-Shape" fill="#2086F8"></path>
        </g>
        <g id="logo-with-text/color" transform="translate(439.000000, 1989.000000)">
            <rect fill="#FFFFFF" x="0" y="0" width="256" height="256"></rect>
            <g id="logo/color/gradual" transform="translate(35.000000, 8.000000)" fill="url(#linearGradient-6)">
                <path d="M127.875,93 L162.75,162.75 L127.760996,162.75 C121.826318,152.490719 118.429688,140.579522 118.429688,127.875 C118.429688,115.170524 121.826293,103.259367 127.760943,93.0000913 C89.2915165,93.0616597 58.125,124.266165 58.125,162.75 L23.25,162.75 L93,23.25 L127.822203,92.894405 L127.875,93 C127.836974,93 127.798955,93.0000304 127.760943,93.0000913 Z" id="Combined-Shape"></path>
            </g>
            <text id="ADoyle" font-family="PingFangSC-Medium, PingFang SC" font-size="45" font-weight="400" fill="#575757">
                <tspan x="53" y="215">ADoyle</tspan>
            </text>
        </g>
        <g id="logo-with-text" transform="translate(83.000000, 1989.000000)">
            <rect fill="#FFFFFF" x="0" y="0" width="256" height="256"></rect>
            <g id="logo/flat" transform="translate(35.000000, 8.000000)" fill="#575757">
                <path d="M127.875,93 C89.3531387,93 58.125,124.228139 58.125,162.75 L23.25,162.75 L93,23.25 L127.875,93 Z" id="Combined-Shape"></path>
                <path d="M127.822203,92.894405 L127.875,93 L162.75,162.75 L127.760996,162.75 C121.826318,152.490719 118.429688,140.579522 118.429688,127.875 C118.429688,115.126874 121.849673,103.177529 127.822203,92.894405 Z" id="Combined-Shape"></path>
            </g>
            <text id="ADoyle" font-family="PingFangSC-Medium, PingFang SC" font-size="45" font-weight="400" fill="#575757">
                <tspan x="53" y="215">ADoyle</tspan>
            </text>
        </g>
        <g id="logo-with-long-text/middle" transform="translate(795.000000, 1989.000000)">
            <rect fill="#FFFFFF" x="0" y="0" width="480" height="256"></rect>
            <g id="logo/color/stereoscopic" transform="translate(30.000000, 30.000000)">
                <path d="M134.75,98 C94.1570709,98 61.25,130.907071 61.25,171.5 L24.5,171.5 L98,24.5 L134.75,98 Z" id="Combined-Shape" fill="url(#linearGradient-7)"></path>
                <path d="M134.694364,97.8887279 L134.75,98 L171.5,171.5 L134.629866,171.5 C128.37612,160.689145 124.796875,148.137561 124.796875,134.75 C124.796875,121.316491 128.400731,108.724708 134.694364,97.8887279 Z" id="Combined-Shape" fill="url(#linearGradient-8)"></path>
            </g>
            <text id="Hello-world" font-family="PingFangSC-Regular, PingFang SC" font-size="40" font-weight="normal" fill="#000000">
                <tspan x="212" y="142">Hello world</tspan>
            </text>
        </g>
        <g id="logo-with-long-text/down" transform="translate(1375.000000, 1989.000000)">
            <rect fill="#FFFFFF" x="0" y="0" width="480" height="256"></rect>
            <g id="logo/color/stereoscopic" transform="translate(30.000000, 30.000000)">
                <path d="M134.75,98 C94.1570709,98 61.25,130.907071 61.25,171.5 L24.5,171.5 L98,24.5 L134.75,98 Z" id="Combined-Shape" fill="url(#linearGradient-7)"></path>
                <path d="M134.694364,97.8887279 L134.75,98 L171.5,171.5 L134.629866,171.5 C128.37612,160.689145 124.796875,148.137561 124.796875,134.75 C124.796875,121.316491 128.400731,108.724708 134.694364,97.8887279 Z" id="Combined-Shape" fill="url(#linearGradient-8)"></path>
            </g>
            <text id="Hello-world" font-family="PingFangSC-Regular, PingFang SC" font-size="40" font-weight="normal" fill="#000000">
                <tspan x="222" y="198">Hello world</tspan>
            </text>
        </g>
        <g id="logo/flat" transform="translate(83.000000, 861.000000)">
            <rect fill="#FFFFFF" x="0" y="0" width="256" height="256"></rect>
            <path d="M176,128 C122.980664,128 80,170.980664 80,224 L32,224 L128,32 L176,128 Z" id="Combined-Shape" fill="#575757"></path>
            <path d="M175.927332,127.854665 L176,128 L224,224 L175.843091,224 C167.674932,209.879699 163,193.485794 163,176 C163,158.454192 167.707077,142.007782 175.927332,127.854665 Z" id="Combined-Shape" fill="#575757"></path>
        </g>
        <g id="logo/border/thin" transform="translate(83.000000, 485.000000)">
            <rect fill="#FFFFFF" x="0" y="0" width="256" height="256"></rect>
            <path d="M176,128 C122.980664,128 80,170.980664 80,224 L32,224 L128,32 L176,128 Z" id="Combined-Shape" stroke="#505050" stroke-width="5"></path>
            <path d="M175.927332,127.854665 L176,128 L224,224 L175.843091,224 C167.674932,209.879699 163,193.485794 163,176 C163,158.454192 167.707077,142.007782 175.927332,127.854665 Z" id="Combined-Shape" stroke="#505050" stroke-width="5"></path>
        </g>
        <g id="logo/border/medium" transform="translate(439.000000, 485.000000)">
            <rect fill="#FFFFFF" x="0" y="0" width="256" height="256"></rect>
            <path d="M176,128 C122.980664,128 80,170.980664 80,224 L32,224 L128,32 L176,128 Z" id="Combined-Shape" stroke="#505050" stroke-width="8"></path>
            <path d="M175.927332,127.854665 L176,128 L224,224 L175.843091,224 C167.674932,209.879699 163,193.485794 163,176 C163,158.454192 167.707077,142.007782 175.927332,127.854665 Z" id="Combined-Shape" stroke="#505050" stroke-width="8"></path>
        </g>
        <g id="logo/border/medium/round" transform="translate(795.000000, 485.000000)">
            <rect fill="#FFFFFF" x="0" y="0" width="256" height="256"></rect>
            <path d="M176,128 C122.980664,128 80,170.980664 80,224 L32,224 L128,32 L176,128 Z" id="Combined-Shape" stroke="#505050" stroke-width="8" stroke-linejoin="round"></path>
            <path d="M175.927332,127.854665 L176,128 L224,224 L175.843091,224 C167.674932,209.879699 163,193.485794 163,176 C163,158.454192 167.707077,142.007782 175.927332,127.854665 Z" id="Combined-Shape" stroke="#505050" stroke-width="8" stroke-linejoin="round"></path>
        </g>
        <g id="logo/border/black-bg" transform="translate(1151.000000, 485.000000)">
            <rect fill="#575757" x="0" y="0" width="256" height="256"></rect>
            <path d="M176,128 C122.980664,128 80,170.980664 80,224 L32,224 L128,32 L176,128 Z" id="Combined-Shape" stroke="#FFFFFF" stroke-width="8" stroke-linejoin="round"></path>
            <path d="M175.927332,127.854665 L176,128 L224,224 L175.843091,224 C167.674932,209.879699 163,193.485794 163,176 C163,158.454192 167.707077,142.007782 175.927332,127.854665 Z" id="Combined-Shape" stroke="#FFFFFF" stroke-width="8" stroke-linejoin="round"></path>
        </g>
        <g id="logo/border/stereoscopic/thin" transform="translate(1507.000000, 485.000000)">
            <rect fill="#FFFFFF" x="0" y="0" width="256" height="256"></rect>
            <path d="M176,128 C122.980664,128 80,170.980664 80,224 L32,224 L128,32 L176,128 Z" id="Combined-Shape" stroke="url(#linearGradient-9)" stroke-width="10"></path>
            <path d="M175.927332,127.854665 L176,128 L224,224 L175.843091,224 C167.674932,209.879699 163,193.485794 163,176 C163,158.454192 167.707077,142.007782 175.927332,127.854665 Z" id="Combined-Shape" stroke="url(#linearGradient-10)" stroke-width="10"></path>
        </g>
        <g id="logo/border/stereoscopic/thin/inner" transform="translate(1507.000000, 101.000000)">
            <rect fill="#FFFFFF" x="0" y="0" width="256" height="256"></rect>
            <path d="M168.06345,123.30724 L128,43.1803399 L40.0901699,219 L75.1216035,219 C77.5990602,168.181013 117.636106,127.226996 168.06345,123.30724 Z" id="Combined-Shape" stroke="url(#linearGradient-9)" stroke-width="10"></path>
            <path d="M175.870132,138.920604 C170.716045,150.455319 168,163.025685 168,176 C168,191.230147 171.742561,205.903947 178.778879,219.000006 L215.90983,219 L175.870132,138.920604 Z" id="Combined-Shape" stroke="url(#linearGradient-10)" stroke-width="10"></path>
        </g>
        <g id="logo/color/border/thin" transform="translate(1863.000000, 485.000000)">
            <rect fill="#FFFFFF" x="0" y="0" width="256" height="256"></rect>
            <path d="M176,128 C122.980664,128 80,170.980664 80,224 L32,224 L128,32 L176,128 Z" id="Combined-Shape" stroke="url(#linearGradient-11)" stroke-width="10"></path>
            <path d="M175.927332,127.854665 L176,128 L224,224 L175.843091,224 C167.674932,209.879699 163,193.485794 163,176 C163,158.454192 167.707077,142.007782 175.927332,127.854665 Z" id="Combined-Shape" stroke="url(#linearGradient-12)" stroke-width="10"></path>
        </g>
        <g id="logo/color/border/thin/inner" transform="translate(1863.000000, 101.000000)">
            <rect fill="#FFFFFF" x="0" y="0" width="256" height="256"></rect>
            <path d="M168.06345,123.30724 L128,43.1803399 L40.0901699,219 L75.1216035,219 C77.5990602,168.181013 117.636106,127.226996 168.06345,123.30724 Z" id="Combined-Shape" stroke="url(#linearGradient-11)" stroke-width="10"></path>
            <path d="M175.870132,138.920604 C170.716045,150.455319 168,163.025685 168,176 C168,191.230147 171.742561,205.903947 178.778879,219.000006 L215.90983,219 L175.870132,138.920604 Z" id="Combined-Shape" stroke="url(#linearGradient-12)" stroke-width="10"></path>
        </g>
        <g id="logo/color/border/medium" transform="translate(2219.000000, 485.000000)">
            <rect fill="#FFFFFF" x="0" y="0" width="256" height="256"></rect>
            <path d="M176,128 C122.980664,128 80,170.980664 80,224 L32,224 L128,32 L176,128 Z" id="Combined-Shape" stroke="url(#linearGradient-11)" stroke-width="16"></path>
            <path d="M175.927332,127.854665 L176,128 L224,224 L175.843091,224 C167.674932,209.879699 163,193.485794 163,176 C163,158.454192 167.707077,142.007782 175.927332,127.854665 Z" id="Combined-Shape" stroke="url(#linearGradient-12)" stroke-width="16"></path>
        </g>
        <g id="logo/color/circle-bg/order" transform="translate(83.000000, 1613.000000)">
            <rect fill="#FFFFFF" x="0" y="0" width="256" height="256"></rect>
            <g id="BG---light" fill="#FAFBFF">
                <circle id="椭圆形" cx="128" cy="128" r="128"></circle>
            </g>
            <g id="logo/color/border/medium" transform="translate(14.000000, 0.000000)" stroke-width="16">
                <path d="M156.75,113.5 C109.529654,113.5 71.25,151.611761 71.25,198.625 L28.5,198.625 L114,28.375 L156.75,113.5 Z" id="Combined-Shape" stroke="url(#linearGradient-13)"></path>
                <path d="M156.68528,113.371129 L156.75,113.5 L199.5,198.625 L156.610253,198.625 C149.335486,186.104264 145.171875,171.567481 145.171875,156.0625 C145.171875,140.504303 149.364115,125.920963 156.68528,113.371129 Z" id="Combined-Shape" stroke="url(#linearGradient-14)"></path>
            </g>
        </g>
        <g id="logo/color/circle-bg/stereoscopic" transform="translate(439.000000, 1613.000000)">
            <rect fill="#FFFFFF" x="0" y="0" width="256" height="256"></rect>
            <g id="BG---light" fill="#FAFBFF">
                <circle id="椭圆形" cx="128" cy="128" r="128"></circle>
            </g>
            <g id="logo/color/stereoscopic" transform="translate(14.000000, 0.000000)">
                <path d="M156.75,113.5 C109.529654,113.5 71.25,151.611761 71.25,198.625 L28.5,198.625 L114,28.375 L156.75,113.5 Z" id="Combined-Shape" fill="url(#linearGradient-15)"></path>
                <path d="M156.68528,113.371129 L156.75,113.5 L199.5,198.625 L156.610253,198.625 C149.335486,186.104264 145.171875,171.567481 145.171875,156.0625 C145.171875,140.504303 149.364115,125.920963 156.68528,113.371129 Z" id="Combined-Shape" fill="url(#linearGradient-16)"></path>
            </g>
        </g>
    </g>
</svg>